<?xml version="1.0" encoding="utf-8"?>
<!-- Generator: Adobe Illustrator 27.0.0, SVG Export Plug-In . SVG Version: 6.00 Build 0)  -->
<svg version="1.1" xmlns="http://www.w3.org/2000/svg" xmlns:xlink="http://www.w3.org/1999/xlink" x="0px" y="0px"
	 viewBox="0 0 500 500" style="enable-background:new 0 0 500 500;" xml:space="preserve">
<style type="text/css">
	.st0{fill:none;stroke:#263238;stroke-linecap:round;stroke-linejoin:round;stroke-miterlimit:10;}
	.st1{opacity:0.2;}
	.st2{fill:#263238;stroke:#263238;stroke-linecap:round;stroke-linejoin:round;stroke-miterlimit:10;}
	.st3{fill:#FFFFFF;stroke:#263238;stroke-linecap:round;stroke-linejoin:round;stroke-miterlimit:10;}
	.st4{fill:none;stroke:#263238;stroke-miterlimit:10;}
	.st5{fill:none;stroke:#92E3A9;stroke-width:6;stroke-linecap:round;stroke-miterlimit:10;}
	.st6{fill:#263238;}
	.st7{fill:none;stroke:#FFFFFF;stroke-linecap:round;stroke-linejoin:round;stroke-miterlimit:10;}
	.st8{fill:#92E3A9;stroke:#263238;stroke-linecap:round;stroke-linejoin:round;stroke-miterlimit:10;}
	.st9{fill:#8F8F8F;stroke:#263238;stroke-linecap:round;stroke-linejoin:round;stroke-miterlimit:10;}
	.st10{fill:#949494;stroke:#263238;stroke-linecap:round;stroke-linejoin:round;stroke-miterlimit:10;}
</style>
<g id="Background_Simple">
</g>
<g id="Floor">
	<g>
		<line class="st0" x1="471.8" y1="456.5" x2="485.2" y2="456.5"/>
		<line class="st0" x1="13.6" y1="456.5" x2="462" y2="456.5"/>
	</g>
</g>
<g id="Plants">
	<g class="st1">
		<path d="M330.6,55.2c3,3.2,12,6.8,12,6.8c0.1,0,0.6-6.7,0.6-7.1c-0.2-4.9-3.5-14.4-8.9-15.8c-3.8-1.1-7.4,1.7-8.1,5.5
			C325.6,48.4,328.1,52.6,330.6,55.2z"/>
		<path d="M420.2,95.7c0.1,0.1,4.2-5.2,4.4-5.6c2.5-4.2,5-13.9,1.3-18.1c-2.6-3-7.1-2.7-9.7,0.1c-2.7,2.9-2.9,7.7-2.2,11.3
			C414.7,87.7,420.2,95.7,420.2,95.7z"/>
		<path d="M460.7,74.7c-4.8-2.7-13.8,1.7-17.4,5c-0.3,0.3-4.7,5.4-4.6,5.4c0,0,0.1,0,0.1,0c-1.4,0.7-2.9,1.4-4.6,2.3
			c-3,1.6-6.4,3.4-10,5.6c-3.6,2.2-7.4,4.7-11.1,7.7c-3.8,3-7.6,6.4-11.1,10.4c0,0-0.1,0.1-0.1,0.1c0.7-1.5,2.4-5.7,2.5-6
			c1.3-4.8,1.1-14.7-3.5-17.8c-3.3-2.2-7.6-0.7-9.4,2.7c-1.8,3.5-0.7,8.2,0.8,11.5c1.8,3.8,8.6,9.6,9.2,10.1
			c-3.3,3.8-6.4,8-9.2,12.4c-1.6,2.5-3.2,5.1-4.8,7.7c0.5-1.3,1-2.5,1-2.6c1.3-4.8,1.1-14.7-3.5-17.8c-3.3-2.2-7.6-0.7-9.4,2.7
			c-1.8,3.5-0.7,8.2,0.8,11.5c1.6,3.4,7.4,8.5,8.9,9.8c-0.6,1-1.2,2-1.8,3c-2.8,4.8-5.5,9.7-8.4,14.4c-1,1.6-2.1,3.2-3.1,4.8
			c0.5-1.2,0.9-2.1,0.9-2.3c1.3-4.8,1.1-14.7-3.5-17.8c-3.3-2.2-7.6-0.7-9.4,2.7c-1.8,3.5-0.7,8.1,0.8,11.5c1.5,3.2,6.8,8,8.6,9.6
			c-1.1,1.6-2.2,3.2-3.4,4.7c-0.8,1-1.5,2-2.4,3c-0.8,1-1.7,1.9-2.5,2.9c-1.7,1.8-3.4,3.6-5,5.3c-1.1,1.2-2.3,2.3-3.4,3.4
			c1-1.6,2.9-4.9,3.1-5.1c1.4-3,2.4-8.4,1.7-12.7c0.2-0.4,0.4-0.9,0.5-1.4c0.9-3.7-1.2-7.7-5.2-8.3c-5.5-0.8-12.3,6.5-14.4,11
			c-0.1,0.3-1.2,3.3-1.8,5.2c0.2-1.2,0.4-2.3,0.6-3.5c0.4-2.4,0.8-4.8,1.1-7.4c0.1-1.3,0.3-2.5,0.4-3.8c0.2-1.3,0.2-2.6,0.3-3.9
			c0.2-3.1,0.2-6.2,0.1-9.3c2.1,0.4,9.6,1.5,13.2,0.6c3.6-0.9,7.9-3.1,9.4-6.7c1.5-3.5-0.1-7.8-3.9-8.9c-5.3-1.6-13.1,4.6-15.9,8.6
			c-0.2,0.3-1.9,3.4-2.8,5.1c0-1.9-0.1-3.8-0.2-5.7c-0.3-5.5-0.8-11.1-1.3-16.7c-0.1-1.7-0.3-3.4-0.4-5.1c0.7,0.1,9.6,1.7,13.6,0.7
			c3.6-0.9,7.9-3.1,9.4-6.7c1.5-3.5-0.1-7.8-3.9-8.9c-5.3-1.6-13.1,4.6-15.9,8.6c-0.2,0.3-2.6,4.8-3.2,6c-0.3-3.7-0.5-7.5-0.6-11.2
			c-0.1-5.1,0-10.1,0.5-15c0.3,0.1,9.6,1.7,13.7,0.7c3.6-0.9,7.9-3.1,9.4-6.7c1.5-3.5-0.1-7.8-3.9-8.9c-5.3-1.6-13.1,4.6-15.9,8.6
			c-0.2,0.3-2,3.7-2.9,5.4c-0.2-0.1-0.1,0-0.3-0.1c0.6-5.2,1.8-10.1,3.2-14.7c0.8-2.6,1.7-5.1,2.6-7.5c1.7,0.5,9.4,2.6,13.2,2.1
			c3.7-0.5,8.2-2.2,10.1-5.6c1.9-3.3,0.8-7.7-2.9-9.3c-5.1-2.2-13.5,3.1-16.8,6.8c-0.2,0.2-1.7,2.5-2.9,4.1c0.4-1.1,0.9-2.2,1.3-3.2
			c1.6-3.8,3.4-7.3,5-10.3c0.9-1.7,1.8-3.2,2.6-4.7c1.9-0.4,9.6-2,12.6-4.2c3-2.1,6.2-5.7,6.3-9.6c0.1-3.8-2.9-7.2-6.8-6.9
			c-5.5,0.4-10.6,9-11.8,13.8c-0.1,0.4-0.9,7.1-0.8,7.1c0,0,0.1,0,0.1,0c-0.8,1.4-1.7,2.8-2.6,4.4c-1.6,3-3.5,6.4-5.2,10.2
			c-1.7,3.8-3.5,8-5,12.6c-1.5,4.6-2.8,9.5-3.6,14.8c0,0.1,0,0.1,0,0.2c-0.3-1.6-1.2-6-1.3-6.4c-1.5-4.7-7.2-12.9-12.7-12.9
			c-4,0-6.7,3.6-6.3,7.4c0.4,3.9,3.9,7.2,7,9.1c3.6,2.2,12.5,3.3,13.2,3.3c-0.6,5-0.9,10.2-0.9,15.4c0,3,0.1,6,0.3,9.1
			c-0.3-1.4-0.5-2.6-0.6-2.8c-1.5-4.7-7.2-12.9-12.7-12.9c-4,0-6.7,3.6-6.3,7.4c0.4,3.9,3.9,7.2,7,9.1c3.2,1.9,10.8,3,12.8,3.3
			c0.1,1.2,0.1,2.3,0.2,3.5c0.4,5.6,0.7,11.2,0.9,16.6c0.1,1.9,0.1,3.8,0.1,5.7c-0.2-1.2-0.5-2.2-0.5-2.4
			c-1.5-4.7-7.2-12.9-12.7-12.9c-4,0-6.7,3.6-6.3,7.4c0.4,3.9,3.9,7.2,7,9.1c3.1,1.9,10.1,2.9,12.5,3.2c-0.1,1.9-0.1,3.9-0.2,5.8
			c-0.1,1.3-0.2,2.5-0.4,3.8c-0.2,1.3-0.3,2.5-0.5,3.8c-0.4,2.4-0.8,4.9-1.3,7.2c-0.3,1.6-0.6,3.2-0.9,4.7c0-1.9-0.2-5.7-0.3-6
			c-0.8-4.9-5.2-13.9-10.6-14.7c-3.9-0.6-7.2,2.6-7.4,6.4c-0.2,3.9,2.7,7.7,5.6,10.1c3.1,2.6,11.5,5,12.5,5.3
			c-0.5,2.6-1.1,5.1-1.6,7.4c-1.9,8.1-3.7,14.7-5.1,19.4l3.5,1.5c0-0.1,0.1-0.2,0.1-0.3c1.3-4.7,3-11.6,4.8-19.8
			c0.6-2.6,1.1-5.4,1.6-8.3c0.7,0,4.7,0.1,8.4-0.3c1.4,3.9,6.7,10.1,7.4,10.9c-1.9,1.8-3.7,3.6-5.4,5.3c-6,5.7-11.2,10.2-14.9,13.3
			l3.8,1.6c3.6-3.2,8.2-7.4,13.4-12.6c1.9-1.9,3.9-3.9,5.9-6c0.9,0.6,8,5.5,12,6.3c3.6,0.7,8.4,0.5,11.3-2.1
			c2.8-2.6,3.2-7.1,0.2-9.7c-4.1-3.7-13.8-1.3-18.1,1.2c-0.3,0.1-2.8,2.1-4.4,3.3c0.8-0.9,1.6-1.7,2.5-2.6c1.7-1.8,3.3-3.6,5-5.5
			c0.8-1,1.6-2,2.4-2.9c0.8-1,1.6-2.1,2.4-3.1c1.8-2.5,3.6-5.1,5.3-7.7c1.6,1.5,7.2,6.5,10.7,7.7c3.5,1.2,8.3,1.8,11.5-0.4
			c3.2-2.1,4.2-6.5,1.7-9.6c-3.5-4.3-13.5-3.4-18.1-1.6c-0.3,0.1-3.4,1.8-5.1,2.8c1-1.6,2-3.2,3-4.9c2.8-4.8,5.4-9.7,8.1-14.6
			c0.8-1.5,1.7-3,2.5-4.5c0.5,0.5,7.1,6.7,11,8.1c3.5,1.2,8.3,1.8,11.5-0.4c3.2-2.1,4.2-6.5,1.7-9.6c-3.5-4.3-13.5-3.4-18.1-1.6
			c-0.3,0.1-4.9,2.6-6,3.2c1.8-3.3,3.7-6.5,5.6-9.7c2.7-4.3,5.6-8.4,8.7-12.2c0.3,0.2,7,6.7,11.1,8.1c3.5,1.2,8.3,1.8,11.5-0.4
			c3.2-2.1,4.2-6.5,1.7-9.6c-3.5-4.3-13.5-3.4-18.1-1.6c-0.3,0.1-3.7,2-5.4,2.9c-0.1-0.1-0.1-0.1-0.2-0.2c3.4-4,7.1-7.4,10.8-10.5
			c2.1-1.8,4.3-3.3,6.4-4.8c1.1,1.3,6.4,7.4,9.9,9c3.3,1.6,8,2.7,11.5,0.9c3.4-1.8,4.9-6,2.7-9.4c-3-4.6-13-4.9-17.8-3.6
			c-0.3,0.1-2.8,1.1-4.7,1.9c1-0.7,1.9-1.4,2.9-2c3.5-2.3,6.8-4.2,9.8-5.8c1.7-0.9,3.3-1.7,4.7-2.5c1.8,0.7,9.1,3.6,12.9,3.4
			c3.7-0.1,8.4-1.3,10.6-4.5C464.7,81.1,464.2,76.6,460.7,74.7z"/>
	</g>
	<g class="st1">
		<path d="M170.9,57.2c-3,3.2-12,6.8-12,6.8c-0.1,0-0.6-6.7-0.6-7.1c0.2-4.9,3.5-14.4,8.9-15.8c3.8-1.1,7.4,1.7,8.1,5.5
			C175.9,50.4,173.5,54.5,170.9,57.2z"/>
		<path d="M81.4,97.7c-0.1,0.1-4.2-5.2-4.4-5.6c-2.5-4.2-5-13.9-1.3-18.1c2.6-3,7.1-2.7,9.7,0.1c2.7,2.9,2.9,7.7,2.2,11.3
			C86.9,89.7,81.4,97.6,81.4,97.7z"/>
		<path d="M40.9,76.6c4.8-2.7,13.8,1.7,17.4,5c0.3,0.3,4.7,5.4,4.6,5.4c0,0-0.1,0-0.1,0c1.4,0.7,2.9,1.4,4.6,2.3
			c3,1.6,6.4,3.4,10,5.6c3.6,2.2,7.4,4.7,11.1,7.7c3.8,3,7.6,6.4,11.1,10.4c0,0,0.1,0.1,0.1,0.1c-0.7-1.5-2.4-5.7-2.5-6
			c-1.3-4.8-1.1-14.7,3.5-17.8c3.3-2.2,7.6-0.7,9.4,2.7c1.8,3.5,0.7,8.2-0.8,11.5c-1.8,3.8-8.6,9.6-9.2,10.1c3.3,3.8,6.4,8,9.2,12.4
			c1.6,2.5,3.2,5.1,4.8,7.7c-0.5-1.3-1-2.5-1-2.6c-1.3-4.8-1.1-14.7,3.5-17.8c3.3-2.2,7.6-0.7,9.4,2.7c1.8,3.5,0.7,8.2-0.8,11.5
			c-1.6,3.4-7.4,8.5-8.9,9.8c0.6,1,1.2,2,1.8,3c2.8,4.8,5.5,9.7,8.4,14.4c1,1.6,2.1,3.2,3.1,4.8c-0.5-1.2-0.9-2.1-0.9-2.3
			c-1.3-4.8-1.1-14.7,3.5-17.8c3.3-2.2,7.6-0.7,9.4,2.7c1.8,3.5,0.7,8.1-0.8,11.5c-1.5,3.2-6.8,8-8.6,9.6c1.1,1.6,2.2,3.2,3.4,4.7
			c0.8,1,1.5,2,2.4,3c0.8,1,1.7,1.9,2.5,2.9c1.7,1.8,3.4,3.6,5,5.3c1.1,1.2,2.3,2.3,3.4,3.4c-1-1.6-2.9-4.9-3.1-5.1
			c-1.4-3-2.4-8.4-1.7-12.7c-0.2-0.4-0.4-0.9-0.5-1.4c-0.9-3.7,1.2-7.7,5.2-8.3c5.5-0.8,12.3,6.5,14.4,11c0.1,0.3,1.2,3.3,1.8,5.2
			c-0.2-1.2-0.4-2.3-0.6-3.5c-0.4-2.4-0.8-4.8-1.1-7.4c-0.1-1.3-0.3-2.5-0.4-3.8c-0.2-1.3-0.2-2.6-0.3-3.9c-0.2-3.1-0.2-6.2-0.1-9.3
			c-2.1,0.4-9.6,1.5-13.2,0.6c-3.6-0.9-7.9-3.1-9.4-6.7c-1.5-3.5,0.1-7.8,3.9-8.9c5.3-1.6,13.1,4.6,15.9,8.6
			c0.2,0.3,1.9,3.4,2.8,5.1c0-1.9,0.1-3.8,0.2-5.7c0.3-5.5,0.8-11.1,1.3-16.7c0.1-1.7,0.3-3.4,0.4-5.1c-0.7,0.1-9.6,1.7-13.6,0.7
			c-3.6-0.9-7.9-3.1-9.4-6.7c-1.5-3.5,0.1-7.8,3.9-8.9c5.3-1.6,13.1,4.6,15.9,8.6c0.2,0.3,2.6,4.8,3.2,6c0.3-3.7,0.5-7.5,0.6-11.2
			c0.1-5.1,0-10.1-0.5-15c-0.3,0.1-9.6,1.7-13.7,0.7c-3.6-0.9-7.9-3.1-9.4-6.7c-1.5-3.5,0.1-7.8,3.9-8.9c5.3-1.6,13.1,4.6,15.9,8.6
			c0.2,0.3,2,3.7,2.9,5.4c0.2-0.1,0.1,0,0.3-0.1c-0.6-5.2-1.8-10.1-3.2-14.7c-0.8-2.6-1.7-5.1-2.6-7.5c-1.7,0.5-9.4,2.6-13.2,2.1
			c-3.7-0.5-8.2-2.2-10.1-5.6c-1.9-3.3-0.8-7.7,2.9-9.3c5.1-2.2,13.5,3.1,16.8,6.8c0.2,0.2,1.7,2.5,2.9,4.1
			c-0.4-1.1-0.9-2.2-1.3-3.2c-1.6-3.8-3.4-7.3-5-10.3c-0.9-1.7-1.8-3.2-2.6-4.7c-1.9-0.4-9.6-2-12.6-4.2c-3-2.1-6.2-5.7-6.3-9.6
			c-0.1-3.8,2.9-7.2,6.8-6.9c5.5,0.4,10.6,9,11.8,13.8c0.1,0.4,0.9,7.1,0.8,7.1c0,0-0.1,0-0.1,0c0.8,1.4,1.7,2.8,2.6,4.4
			c1.6,3,3.5,6.4,5.2,10.2c1.7,3.8,3.5,8,5,12.6c1.5,4.6,2.8,9.5,3.6,14.8c0,0.1,0,0.1,0,0.2c0.3-1.6,1.2-6,1.3-6.4
			c1.5-4.7,7.2-12.9,12.7-12.9c4,0,6.7,3.6,6.3,7.4c-0.4,3.9-3.9,7.2-7,9.1c-3.6,2.2-12.5,3.3-13.2,3.3c0.6,5,0.9,10.2,0.9,15.4
			c0,3-0.1,6-0.3,9.1c0.3-1.4,0.5-2.6,0.6-2.8c1.5-4.7,7.2-12.9,12.7-12.9c4,0,6.7,3.6,6.3,7.4c-0.4,3.9-3.9,7.2-7,9.1
			c-3.2,1.9-10.8,3-12.8,3.3c-0.1,1.2-0.1,2.3-0.2,3.5c-0.4,5.6-0.7,11.2-0.9,16.6c-0.1,1.9-0.1,3.8-0.1,5.7
			c0.2-1.2,0.5-2.2,0.5-2.4c1.5-4.7,7.2-12.9,12.7-12.9c4,0,6.7,3.6,6.3,7.4c-0.4,3.9-3.9,7.2-7,9.1c-3.1,1.9-10.1,2.9-12.5,3.2
			c0.1,1.9,0.1,3.9,0.2,5.8c0.1,1.3,0.2,2.5,0.4,3.8c0.2,1.3,0.3,2.5,0.5,3.8c0.4,2.4,0.8,4.9,1.3,7.2c0.3,1.6,0.6,3.2,0.9,4.7
			c0-1.9,0.2-5.7,0.3-6c0.8-4.9,5.2-13.9,10.6-14.7c3.9-0.6,7.2,2.6,7.4,6.4c0.2,3.9-2.7,7.7-5.6,10.1c-3.1,2.6-11.5,5-12.5,5.3
			c0.5,2.6,1.1,5.1,1.6,7.4c1.9,8.1,3.7,14.7,5.1,19.4l-3.5,1.5c0-0.1-0.1-0.2-0.1-0.3c-1.3-4.7-3-11.6-4.8-19.8
			c-0.6-2.6-1.1-5.4-1.6-8.3c-0.7,0-4.7,0.1-8.4-0.3c-1.4,3.9-6.7,10.1-7.4,10.9c1.9,1.8,3.7,3.6,5.4,5.3c6,5.7,11.2,10.2,14.9,13.3
			l-3.8,1.6c-3.6-3.2-8.2-7.4-13.4-12.6c-1.9-1.9-3.9-3.9-5.9-6c-0.9,0.6-8,5.5-12,6.3c-3.6,0.7-8.4,0.5-11.3-2.1
			c-2.8-2.6-3.2-7.1-0.2-9.7c4.1-3.7,13.8-1.3,18.1,1.2c0.3,0.1,2.8,2.1,4.4,3.3c-0.8-0.9-1.6-1.7-2.5-2.6c-1.7-1.8-3.3-3.6-5-5.5
			c-0.8-1-1.6-2-2.4-2.9c-0.8-1-1.6-2.1-2.4-3.1c-1.8-2.5-3.6-5.1-5.3-7.7c-1.6,1.5-7.2,6.5-10.7,7.7c-3.5,1.2-8.3,1.8-11.5-0.4
			c-3.2-2.1-4.2-6.5-1.7-9.6c3.5-4.3,13.5-3.4,18.1-1.6c0.3,0.1,3.4,1.8,5.1,2.8c-1-1.6-2-3.2-3-4.9c-2.8-4.8-5.4-9.7-8.1-14.6
			c-0.8-1.5-1.7-3-2.5-4.5c-0.5,0.5-7.1,6.7-11,8.1c-3.5,1.2-8.3,1.8-11.5-0.4c-3.2-2.1-4.2-6.5-1.7-9.6c3.5-4.3,13.5-3.4,18.1-1.6
			c0.3,0.1,4.9,2.6,6,3.2c-1.8-3.3-3.7-6.5-5.6-9.7c-2.7-4.3-5.6-8.4-8.7-12.2c-0.3,0.2-7,6.7-11.1,8.1c-3.5,1.2-8.3,1.8-11.5-0.4
			c-3.2-2.1-4.2-6.5-1.7-9.6c3.5-4.3,13.5-3.4,18.1-1.6c0.3,0.1,3.7,2,5.4,2.9c0.1-0.1,0.1-0.1,0.2-0.2c-3.4-4-7.1-7.4-10.8-10.5
			c-2.1-1.8-4.3-3.3-6.4-4.8c-1.1,1.3-6.4,7.4-9.9,9c-3.3,1.6-8,2.7-11.5,0.9c-3.4-1.8-4.9-6-2.7-9.4c3-4.6,13-4.9,17.8-3.6
			c0.3,0.1,2.8,1.1,4.7,1.9c-1-0.7-1.9-1.4-2.9-2c-3.5-2.3-6.8-4.2-9.8-5.8c-1.7-0.9-3.3-1.7-4.7-2.5c-1.8,0.7-9.1,3.6-12.9,3.4
			c-3.7-0.1-8.4-1.3-10.6-4.5C36.8,83.1,37.4,78.6,40.9,76.6z"/>
	</g>
</g>
<g id="Calendar">
	<g>
		<path class="st0" d="M475.6,170.6v4.6c0,1.2-1,2.1-2.1,2.1c-1.2,0-2.1-1-2.1-2.1v-4.6h-12.4v4.6c0,1.2-1,2.1-2.1,2.1
			c-1.2,0-2.1-1-2.1-2.1v-4.6h-12.4v4.6c0,1.2-1,2.1-2.1,2.1c-1.2,0-2.1-1-2.1-2.1v-4.6h-12.4v4.6c0,1.2-1,2.1-2.1,2.1
			c-1.2,0-2.1-1-2.1-2.1v-4.6h-12.4v4.6c0,0.6-0.2,1.1-0.6,1.5c-0.4,0.4-0.9,0.6-1.5,0.6c-1.2,0-2.1-1-2.1-2.1v-4.6h-5.7v59h82.4
			v-59H475.6z M412.6,221.1h-6.4v-6.4h6.4V221.1z M412.6,211.8h-6.4v-6.4h6.4V211.8z M412.6,202.5h-6.4v-6.4h6.4V202.5z
			 M412.6,193.2h-6.4v-6.4h6.4V193.2z M422.8,221.1h-6.4v-6.4h6.4V221.1z M422.8,211.8h-6.4v-6.4h6.4V211.8z M422.8,202.5h-6.4v-6.4
			h6.4V202.5z M422.8,193.2h-6.4v-6.4h6.4V193.2z M433.1,221.1h-6.4v-6.4h6.4V221.1z M433.1,211.8h-6.4v-6.4h6.4V211.8z
			 M433.1,202.5h-6.4v-6.4h6.4V202.5z M433.1,193.2h-6.4v-6.4h6.4V193.2z M443.3,221.1h-6.4v-6.4h6.4V221.1z M443.3,211.8h-6.4v-6.4
			h6.4V211.8z M443.3,202.5h-6.4v-6.4h6.4V202.5z M443.3,193.2h-6.4v-6.4h6.4V193.2z M453.6,221.1h-6.4v-6.4h6.4V221.1z
			 M453.6,211.8h-6.4v-6.4h6.4V211.8z M453.6,202.5h-6.4v-6.4h6.4V202.5z M453.6,193.2h-6.4v-6.4h6.4V193.2z M463.9,221.1h-6.4v-6.4
			h6.4V221.1z M463.9,211.8h-6.4v-6.4h6.4V211.8z M463.9,202.5h-6.4v-6.4h6.4V202.5z M463.9,193.2h-6.4v-6.4h6.4V193.2z
			 M474.1,221.1h-6.4v-6.4h6.4V221.1z M474.1,211.8h-6.4v-6.4h6.4V211.8z M474.1,202.5h-6.4v-6.4h6.4V202.5z M474.1,193.2h-6.4v-6.4
			h6.4V193.2z"/>
		<path class="st0" d="M475.6,165.8v9.3c0,1.2-1,2.1-2.1,2.1c-1.2,0-2.1-1-2.1-2.1v-9.3c0-1.2,1-2.1,2.1-2.1c0.6,0,1.1,0.2,1.5,0.6
			C475.4,164.7,475.6,165.3,475.6,165.8z"/>
		<path class="st0" d="M458.9,165.8v9.3c0,1.2-1,2.1-2.1,2.1c-1.2,0-2.1-1-2.1-2.1v-9.3c0-1.2,1-2.1,2.1-2.1c0.6,0,1.1,0.2,1.5,0.6
			C458.7,164.7,458.9,165.3,458.9,165.8z"/>
		<path class="st0" d="M442.3,165.8v9.3c0,1.2-1,2.1-2.1,2.1c-1.2,0-2.1-1-2.1-2.1v-9.3c0-1.2,1-2.1,2.1-2.1c0.6,0,1.1,0.2,1.5,0.6
			C442,164.7,442.3,165.3,442.3,165.8z"/>
		<path class="st0" d="M425.6,165.8v9.3c0,1.2-1,2.1-2.1,2.1c-1.2,0-2.1-1-2.1-2.1v-9.3c0-1.2,1-2.1,2.1-2.1c0.6,0,1.1,0.2,1.5,0.6
			C425.3,164.7,425.6,165.3,425.6,165.8z"/>
		<path class="st0" d="M408.9,165.8v9.3c0,0.6-0.2,1.1-0.6,1.5c-0.4,0.4-0.9,0.6-1.5,0.6c-1.2,0-2.1-1-2.1-2.1v-9.3
			c0-0.6,0.2-1.1,0.6-1.5c0.4-0.4,0.9-0.6,1.5-0.6C408,163.7,408.9,164.7,408.9,165.8z"/>
	</g>
</g>
<g id="Clock">
	<g>
		<circle class="st0" cx="72.3" cy="200.6" r="33.8"/>
		
			<ellipse transform="matrix(0.9738 -0.2273 0.2273 0.9738 -43.6943 21.685)" class="st0" cx="72.3" cy="200.6" rx="29.9" ry="29.9"/>
		<circle class="st2" cx="72.3" cy="200.6" r="2.9"/>
		<polyline class="st0" points="82.7,205.7 72.3,200.6 54.9,219.6 		"/>
	</g>
</g>
<g id="Form">
	<g>
		<path class="st2" d="M376.9,448.3H135.4c-3.4,0-6.1-2.7-6.1-6.1V78.9c0-3.4,2.7-6.1,6.1-6.1h241.4c3.4,0,6.1,2.7,6.1,6.1v363.3
			C382.9,445.6,380.2,448.3,376.9,448.3z"/>
		<rect x="142.2" y="81.3" class="st3" width="227.8" height="352.6"/>
		<g>
			<g>
				<line class="st4" x1="288" y1="172.8" x2="305.6" y2="172.8"/>
				<line class="st4" x1="165.3" y1="172.8" x2="274.3" y2="172.8"/>
				<line class="st4" x1="261.7" y1="186.5" x2="305.6" y2="186.5"/>
				<line class="st4" x1="194.4" y1="186.5" x2="249.7" y2="186.5"/>
				<line class="st4" x1="165.3" y1="186.5" x2="184.1" y2="186.5"/>
				<line class="st4" x1="220.1" y1="200.2" x2="305.6" y2="200.2"/>
				<line class="st4" x1="165.3" y1="200.2" x2="201.2" y2="200.2"/>
			</g>
			
				<ellipse transform="matrix(0.9729 -0.2312 0.2312 0.9729 -33.6083 83.9071)" class="st4" cx="341.2" cy="185.3" rx="14.8" ry="14.8"/>
		</g>
		<g>
			<g>
				<line class="st4" x1="183" y1="233.8" x2="165.3" y2="233.8"/>
				<line class="st4" x1="305.6" y1="233.8" x2="196.7" y2="233.8"/>
				<line class="st4" x1="209.2" y1="247.5" x2="165.3" y2="247.5"/>
				<line class="st4" x1="276.5" y1="247.5" x2="221.2" y2="247.5"/>
				<line class="st4" x1="305.6" y1="247.5" x2="286.8" y2="247.5"/>
				<line class="st4" x1="250.9" y1="261.2" x2="165.3" y2="261.2"/>
				<line class="st4" x1="305.6" y1="261.2" x2="269.7" y2="261.2"/>
			</g>
			
				<ellipse transform="matrix(0.9729 -0.2312 0.2312 0.9729 -47.7265 85.5618)" class="st4" cx="341.2" cy="246.4" rx="14.8" ry="14.8"/>
		</g>
		<g>
			<g>
				<line class="st4" x1="288" y1="294.9" x2="305.6" y2="294.9"/>
				<line class="st4" x1="165.3" y1="294.9" x2="274.3" y2="294.9"/>
				<line class="st4" x1="261.7" y1="308.6" x2="305.6" y2="308.6"/>
				<line class="st4" x1="194.4" y1="308.6" x2="249.7" y2="308.6"/>
				<line class="st4" x1="165.3" y1="308.6" x2="184.1" y2="308.6"/>
				<line class="st4" x1="220.1" y1="322.3" x2="305.6" y2="322.3"/>
				<line class="st4" x1="165.3" y1="322.3" x2="201.2" y2="322.3"/>
			</g>
			
				<ellipse transform="matrix(0.7071 -0.7071 0.7071 0.7071 -117.4777 331.2917)" class="st4" cx="341.2" cy="307.5" rx="14.8" ry="14.8"/>
		</g>
		<g>
			<path class="st2" d="M275.3,43.3c-1.1,0-1.9-0.9-1.9-1.9V30.4c0-2.3-1.8-4.1-4.1-4.1h-17.6c-2.3,0-4.1,1.8-4.1,4.1v10.9
				c0,1.1-0.9,1.9-1.9,1.9h0c-1.1,0-1.9,0.9-1.9,1.9v29.5h33.6V45.2C277.3,44.1,276.4,43.3,275.3,43.3z M260.5,42.3
				c-3,0-5.4-2.4-5.4-5.4c0-3,2.4-5.4,5.4-5.4c3,0,5.4,2.4,5.4,5.4C265.9,39.8,263.5,42.3,260.5,42.3z"/>
			<path class="st3" d="M312.9,83.9H208.1V74c0-4.8,3.9-8.6,8.6-8.6h87.5c4.8,0,8.6,3.9,8.6,8.6V83.9z"/>
			<path class="st2" d="M210.7,68.6h99.6c-1.8-2-4.4-3.2-7.3-3.2H218C215.1,65.4,212.5,66.6,210.7,68.6z"/>
			<rect x="208.1" y="83.9" class="st3" width="104.8" height="6.1"/>
		</g>
		<polyline class="st5" points="335.5,243.9 339.5,251.1 354.8,236.3 		"/>
		<polyline class="st5" points="335.5,182.2 339.5,189.4 354.8,174.6 		"/>
		<g>
			<g>
				<line class="st4" x1="288" y1="112.4" x2="305.6" y2="112.4"/>
				<line class="st4" x1="165.3" y1="112.4" x2="274.3" y2="112.4"/>
				<line class="st4" x1="261.7" y1="126.1" x2="305.6" y2="126.1"/>
				<line class="st4" x1="194.4" y1="126.1" x2="249.7" y2="126.1"/>
				<line class="st4" x1="165.3" y1="126.1" x2="184.1" y2="126.1"/>
				<line class="st4" x1="220.1" y1="139.8" x2="305.6" y2="139.8"/>
				<line class="st4" x1="165.3" y1="139.8" x2="201.2" y2="139.8"/>
			</g>
			
				<ellipse transform="matrix(0.7071 -0.7071 0.7071 0.7071 11.5559 277.8443)" class="st4" cx="341.2" cy="125" rx="14.8" ry="14.8"/>
		</g>
		<polyline class="st5" points="335.5,121.9 339.5,129 354.8,114.2 		"/>
		<polyline class="st5" points="333.4,302.2 337.4,309.3 352.6,294.5 		"/>
	</g>
</g>
<g id="Character_3">
	<g>
		<g>
			<g>
				<path class="st3" d="M414.9,207.7c0,0,5.4,4.6,5,8.6c-0.4,4-5.8,13.9-7.1,16.8c-1.2,2.9,1.7,9.8,1.7,9.8l-18,6.1
					c0,0,0.4-2.2,0-3.2c-0.4-1-1.1-3.6-1.1-3.6s-2.8,1-3.6,1.2c-0.8,0.3-3.7-1.1-3.9-2.4c-0.1-1.2-0.1-2.1-0.3-3.9
					c-0.1-1.8-0.4-5-0.7-5.5c-0.3-0.6-3-2.4-2.9-3.3s3.3-4.7,3.6-6c0.3-1.2-0.4-4-0.1-5.5c0.3-1.5,2.9-6.8,2.9-6.8s-1.7-1.4,2.9-5.1
					C397.9,201.2,409.4,200.1,414.9,207.7z"/>
				<path class="st2" d="M414.9,207.7c-5.5-7.6-17-6.5-21.6-2.8c-4.6,3.7-2.9,5.1-2.9,5.1l4.2,3.2c0,0-3.9,4.4-3.3,5
					c0.6,0.6,3.6,4.4,3.6,4.4l-0.3,1.3l-0.5-2.1c0,0-1.7,6.9-2,8.6c-0.3,1.7-0.3,2.4-1.1,2.6c-0.8,0.2-4-1.4-4-1.4s0,4.1-0.1,5.8
					c-0.1,1.7-0.2,3.1-0.3,4.6c-0.1,1.5,2.2,4,4.8,3.4c2.7-0.5,4.1-2,4.1-3.3c-0.1-1.4,0.9-6.2,0.5-7.2c-0.4-1-1.2-5.8-0.5-7.9
					c0,0,1.8-3.9,3.7-3.9c1.9,0,2.2,5.3,1.7,6.5c-0.6,1.2-0.8,1.9-0.8,1.9s0,0.8,5.4,2.6c4.1,1.4,6.3,0.6,7.2,0.1
					c0-0.5,0.1-1,0.3-1.4c1.2-2.9,6.7-12.8,7.1-16.8C420.3,212.2,414.9,207.7,414.9,207.7z"/>
				<path class="st0" d="M399.9,231.7c0,0-1.2,1.9-2.4,2.4c-1.1,0.4-1.8-1.1-1.8-1.1"/>
			</g>
			<path class="st6" d="M388,222.8c0,1,0.2,1.8,0.6,1.8c0.3,0,0.6-0.8,0.6-1.8c0-1-0.2-1.8-0.6-1.8C388.3,221,388,221.8,388,222.8z"
				/>
			<path class="st0" d="M389.7,220.6c0,0,0.3-1.8-1.9-1"/>
			<path class="st7" d="M388.4,235.7c0,0,1.5-0.4,2.1-1.1"/>
		</g>
		<g>
			<polygon class="st3" points="337.6,271.1 369,271.1 376.3,295.7 344.9,295.7 			"/>
			<polygon class="st3" points="339.8,272.5 367.6,272.5 374,294.3 346.3,294.3 			"/>
			
				<rect x="345.1" y="295.9" transform="matrix(-1 -1.224647e-16 1.224647e-16 -1 728.5326 593.5511)" class="st3" width="38.3" height="1.7"/>
		</g>
		<g>
			<path class="st3" d="M395.5,454.9c0,0-3.4,4.7-5.7,6c-2.3,1.2-7.9,2.7-7.9,4.1c0,1.5,0.4,1.7,2.9,2.5c2.5,0.8,7,0.8,9.5,0.8
				c2.5,0,5.2,0,6,0.2c0.8,0.2,5.4,0.6,7.5,0.6c2.1,0,2-5.5,2-5.5L395.5,454.9z"/>
			<path class="st2" d="M428.9,337.5c0,0-4.9,38.7-9.5,51.6c-4.6,12.9-2.7,16.8-5.8,29.9c-3.2,13.1-3.6,44-3.6,44.7s-1.5,0-6.6-2.7
				c-5.1-2.7-7.8-6.1-7.8-6.1s0.2-2.7,0.7-4.6c0.5-1.9,1.5-7.1,1.5-7.1s-1.9-16.5,0.2-43c2.2-26.5,3.2-57.9,3.2-57.9
				S418.9,339.9,428.9,337.5z"/>
		</g>
		<path class="st3" d="M404.4,463.3c0,0-3.5,3.6-5.7,4.8c-2.2,1.2-9,3.6-9.2,4.7c-0.1,1,0.6,3.1,1,3.2c0.4,0.1,6.3,1.2,11.8,1.3
			c5.5,0.1,11.9-0.6,13.5-0.6s5.4,1.5,5.5-2.9c0.1-4.4-2.2-10.6-2.2-10.6S411.5,465.5,404.4,463.3z"/>
		<path class="st2" d="M415.8,351.9c0,0-1.8,25-2.7,32.5C412.2,392,414,408,416,419c2,11.1,2.7,33.9,2.7,33.9s1.3,0.9,0.7,2.2
			c-0.7,1.3-1.3,3.3-1.3,3.3s2.4,0.9,2.2,2.4c-0.2,1.5-0.9,4.4-0.9,4.4s-1.3,0.2-6,0.2c-4.6,0-8.4-0.9-8.4-0.9l-1.8-0.9
			c0,0-0.4-3.5-0.4-5.5c0-2,2.2-4,2-5.1c-0.2-1.1-1.3-7.3-2.2-12.4c-0.9-5.1-0.2-8.2-1.8-13.5c-1.5-5.3-10.2-37-10.2-37
			s-4-36.7-4.2-41.8c-0.2-5.1-0.2-7.3-0.2-7.3s6.9-5.5,8.4-5.5C396.1,335.6,415.8,351.9,415.8,351.9z"/>
		<g>
			<path class="st8" d="M385.4,337.3c0,0-0.8,5.6,0,6.7c0.8,1.1,7.3,2.9,15.6,3.8c8.2,0.9,18.7,0,22.3-1.3c3.5-1.3,5.8-2.4,6.3-3.3
				c0.5-0.9,0.1-5.6,0.1-5.6S397,339.6,385.4,337.3z"/>
			<path class="st8" d="M417.4,246.2c0,0,11.6,7.8,13.8,20.1c1.9,11-1.2,49.8-1.2,51.9c0,2.1,1.6,18.9,1.6,18.9
				c1.6,3.5-11.8,6.8-19.2,7.5c-6.5,0.6-21-0.8-25.1-2.9c-1.3-0.7-2.6-1.4-2.6-2.8c-0.1-6.8-0.5-24.9,0-27.6c0.6-3.3,0-22.7,0-29.4
				s-2.5-16.8-0.3-21.1c2.2-4.3,7.9-7.2,7.9-7.2S402.6,245.1,417.4,246.2z"/>
			<g>
				<path class="st0" d="M417.5,285.5c-1.2,2.2-2.2,3.9-3,4.8"/>
				<path class="st0" d="M425.4,268.9c0,0-2.7,6.1-5.5,11.8"/>
				<line class="st0" x1="420" y1="288.2" x2="414.1" y2="296"/>
			</g>
		</g>
		<path class="st8" d="M417.5,240.5l2.6,6.7c0,0-5.5,0.3-10.7,1c-5.1,0.7-17.3,5.5-17.3,5.5s1.2-5,2.2-6c1-1,4.6-4.6,11.5-6.1
			C412.8,240.1,417.5,240.5,417.5,240.5z"/>
		<g>
			<path class="st3" d="M397.5,303.6c0,0-0.9,10.5-2,11c-1.2,0.5-29.7-9.4-31.8-10.5c-2-1-3.2-0.9-3.6-1c-0.4-0.1-3.8-0.1-5.1-0.8
				c-1.3-0.6-2.6-2.3-2.9-2.6c-0.4-0.3-3.5-0.4-4.4-1c-0.9-0.6-2-1.2-1.3-1.5c0.8-0.4,4.6-1.2,4.6-1.2s0.1-1.8,1.7-2
				c1.5-0.3,1,0.4,4.7-1.8c3.7-2.2,3.3-0.4,6.5,1.9c3.2,2.3,4.7,4.9,5.1,5c0.4,0.1,12,4.5,12,4.5H397.5z"/>
			<line class="st3" x1="351" y1="296.1" x2="357.3" y2="295.3"/>
		</g>
		<path class="st8" d="M372,300.2c0,0-1.8-1.5-3-1c-1.2,0.5-2.9,2.7-3.1,5.5c-0.2,2.8,4.3,3.1,4.3,3.1L372,300.2z"/>
		<path class="st8" d="M395.6,254.9c-2.3,0-8.4,1.7-10.3,3.8c-1.9,2.1-2.1,8.2-1.5,16.4c0.6,8.2,3.8,23.5,3.8,23.6
			c0-0.2-0.4,0.8-0.5,1c-0.4,0.7,0.6,0.9-0.3,1c-0.4,0.1-2.3,0.3-2.6,0.2c-1.5-0.3-2.9-0.5-4.4-0.7c-2.4-0.4-6.5-0.9-8.9-0.9
			c-0.9,0-3.4,7.5-2,9.2c1.4,1.6,29.2,12.4,31.1,12c1.9-0.5,5.4-25,5.4-25.2c0.5-6.7,1.2-14.6,1.3-15.5"/>
		<g>
			<path class="st0" d="M386.9,300.7c0,0,3.1,3.3,5.9,5.4"/>
			<path class="st0" d="M389.5,305.5c0,0,2.4,2.2,4.1,2.9"/>
		</g>
	</g>
</g>
<g id="Character_2">
	<g>
		<g>
			<path class="st3" d="M285.8,237.6c-0.6-3.4-2.9-5.7-3.4-7.8c-0.6-2.1-1.9-4.6-1.9-4.6s-3.4,6.8-4.5,12.5l-0.5-1.2l-9.5,7.4
				l-0.6,16.5l15.4,0.7c0,0-0.6-2.7-0.8-4.8c-0.2-2,0.1-5.3,0.3-6c0,0,4.3,0.1,4.7-1.4C285.4,247.5,286.3,241,285.8,237.6z"/>
			<path class="st3" d="M283.3,231.5c0,0,1.2,0.4,1.8,0.4c0.6,0,1.6,0.1,1.2,1.5c-0.3,1.3-1.1,1.8-1.1,1.8L283.3,231.5z"/>
		</g>
		<path class="st3" d="M278.7,422.7c0,0-2.1,35.7-2.1,36.3s-2.6,9.4-2.3,10.8c0.4,1.3,3.4,1.7,5.5,1.9c2.1,0.2,6.4,0.8,8.1,0.8
			c1.7,0,7.7-0.4,8.9-0.8c1.1-0.4,2.6-1.5,1.3-2.5c-1.3-0.9-4.5-1.3-8.3-5.7c-3.8-4.3-4.7-6.2-4.7-6.2l8-34.2L278.7,422.7z"/>
		<path class="st3" d="M225.7,416.1c0,0-14.7,36.6-15.8,38.1c-1.1,1.5-8.8,11.2-9,13c-0.2,1.9,9.6,2.1,11.3,0.9
			c1.7-1.1,3.7-11,4.8-13c1.1-2.1,26.2-36.4,26.2-36.4L225.7,416.1z"/>
		<g>
			<path class="st9" d="M250.4,309.7l-0.3,6.1c0,0-7.7,16.5-15.1,37c-8.1,22.3-18.7,61-18.7,61s7,6.4,26,9.5
				c19,3.1,30.8,4.4,41.1,4.1c12.5-0.4,28.4-3.8,28.4-3.8s-8.9-54.7-16.2-79.6c-7.3-24.8-9-27.3-9-27.3l-2.5-13.9L250.4,309.7z"/>
			<g>
				<line class="st0" x1="262.3" y1="352" x2="260.2" y2="425.3"/>
				<line class="st0" x1="262.4" y1="346.6" x2="262.4" y2="349.5"/>
				<path class="st0" d="M278.3,317.3c1.2-0.2,2.3-0.5,3.4-0.9"/>
				<path class="st0" d="M253.5,317.8c0,0,10.4,1.4,20.5,0.2"/>
			</g>
		</g>
		<g>
			<path class="st3" d="M320,237.5c0,0-0.8-3.7-1-6.2c-0.1-2.5-2.5-5.7-2.2-7.1c0.3-1.4,1.6-1.2,2.3-0.8c0.7,0.4,1.5,1.8,1.5,1.8
				s1.9-5.9,1.9-8.5c0-2.6,1.6-2.3,2.3-0.5c0.7,1.8-0.3,8.6-0.3,8.6s2.6,0.7,3.8,1.2c1.2,0.5,3.6,1.6,3.1,5.1
				c-0.4,3.4-0.8,5.3-1.6,5.3s-1.5-1.1-1.5-1.1s0,3.7-1.2,4.8c-1.2,1.1-3.7,1.2-3.7,1.2S323.8,238.6,320,237.5z"/>
			<path class="st0" d="M328.5,235.3c0,0,0.8-3.1,0.8-3.6"/>
			<line class="st0" x1="320.7" y1="225.2" x2="319.9" y2="229"/>
		</g>
		<path class="st8" d="M316.6,241.3l2.6-4.4c0,0,1-1.4,3.4-0.6c0,0,0,0,0.1,0c2.2,0.7,3.4,3,2.8,5.2l-0.7,2.5
			C324.7,244.1,319.6,241.1,316.6,241.3z"/>
		<g>
			<path class="st3" d="M209.1,328.7c0,0,0.6,3.3,0.9,5.6c0.3,2.3,1.9,7,3,7.6c1.1,0.6,2.5,1.4,0.9,1.9c-1.6,0.5-2.5,0.6-3.9-0.5
				c-1.4-1.1-2.3-2.3-2.3-2.3s-1.1,4.8-1.9,7.2c-0.8,2.3-3.1,6.1-3.1,6.1s-0.1,1.2-1,1.7c-0.9,0.5-1.6-1.4-1.6-1.4s-1.3,2.9-2.1-0.2
				c-0.3-1.2-1.4-9.3-1.2-10.9c0.2-1.6,6.4-16,6.4-16L209.1,328.7z"/>
			<path class="st0" d="M200.3,345.8c-0.5,0.9-1,2-1,2.5c0,0.6,0.8,6.2,0.8,6.2"/>
			<polyline class="st0" points="202.7,354.2 201.9,348.8 203.3,345.2 			"/>
			<path class="st0" d="M203.8,352.4c0,0,0.1-2.9,0.3-4.3c0.2-1.3,0.5-1.1,1-2.7"/>
			<path class="st0" d="M205.4,338.1c0,0-0.2,1.4-1.2,2.5c-1.1,1.1-3.3,2.6-3.3,2.6"/>
		</g>
		<path class="st8" d="M247.1,262.5c0,0-12.7,6.1-13.5,7.7c-0.8,1.6-16.6,29.9-18.8,32.7c-2.2,2.8-8.9,6.3-9.7,9.1
			c-0.8,2.8-0.2,10.3-0.2,10.3l-1.6,5.2c0,0,0.2,1.8,3,2.4c2.8,0.6,2.8,0.6,2.8,0.6l4.8-4.6c0,0,10.3-2.6,14.5-7.5
			c4.2-5,14.3-28.1,14.3-28.1l-1.6,15.7c0,0,10.3,1.6,22.6,0.6c12.3-1,25.8-3,25.8-3l-1.8-18.2c0,0,29.3-4.8,30.9-6.1
			c1.6-1.4,3-5.2,3.2-6.5c0.2-1.4,5.2-27.9,5.2-27.9s-1.8-3-5.9-3.8c-4.2-0.8-8.3,1.4-8.5,2.6c-0.2,1.2-8.7,18.4-8.7,18.4
			s-0.6-0.4-2.8,0.6c-2.2,1-6-0.6-6-0.6s-7.7-2.2-12-1.8c-4.4,0.4-8.5,1-8.5,1s-7.7-3.6-13.5-2C255,260.7,247.1,262.5,247.1,262.5z"
			/>
		<polyline class="st0" points="274.4,287.1 287.5,285.3 278.8,289.9 		"/>
		<polyline class="st0" points="242.7,281.4 242.5,290.3 239.5,286.5 		"/>
		<path class="st0" d="M206.6,323.2c0,0,0.6,2,5.4,2"/>
		<g>
			<path class="st2" d="M257.8,246.6c6.5,5,12,2,14.3-0.4c2.9-2.9,2.8-6.6,4.7-10.2c0.2-1.3,4.6-5.9,4.9-6.9
				c0.8-2.5-0.7-6.8-0.7-6.8s4.2,0.6,2.3-3.6c-1.9-4.2-3.6-5.7-7.6-6.1c-4-0.4-6.3,2.9-6.3,2.9s-4.8-2.3-8-0.6
				c-3.2,1.7-7.9,0-11.8,11.6c-0.3,1-1.1,2.8-1.2,4.1c-0.2,3.4,1.8,5.8,3.7,8.5C255,243.4,253.7,243.5,257.8,246.6z"/>
			<path class="st3" d="M265.6,241.2c0,2.7-2.2,4.8-4.8,4.8c-2.7,0-4.8-2.2-4.8-4.8c0-2.7,2.2-4.8,4.8-4.8
				C263.4,236.3,265.6,238.5,265.6,241.2z"/>
			<path class="st2" d="M251.9,250.1c0,3,0,5.9-2.7,8c-3,2.2-14.5,10.8-8.2,19.5c6.3,8.7,7.2,6.3,6.7,9.3s-12.8,11.2-10.6,18.4
				c2.2,7.3,11.3,11.3,10,14.1c-1.3,2.8,2.8,16.5,18.6,9.3c15.8-7.3,14.7-19.7,8.4-33.8c-1.5-3.3-0.8-7.4,5.2-14.1
				c5.9-6.7,1.5-19.6-4.8-26c-3.7-3.8-5.2-6.9-5-7.6c0.2-0.7-5.8-9.5-10.8-6.9c-3.1,1.6-6,4.7-6.7,8.3
				C252,249,251.9,249.6,251.9,250.1z"/>
			<path class="st3" d="M276.8,236.1c0,0-2-2.7-3.3,0.2c-1.4,2.9,0.3,5.9,1.7,6.9c1.4,1.1,2.3-2.8,2.3-2.8"/>
		</g>
		<path class="st8" d="M296.8,471.7c1.1-0.4,2.6-1.5,1.3-2.5c-1.3-0.9-4.5-1.3-8.3-5.7l-0.2,3.4c0,0-8.5-0.3-14.5-1.8
			c-0.5,2.1-0.9,4-0.7,4.6c0.4,1.3,3.4,1.7,5.5,1.9c2.1,0.2,6.4,0.8,8.1,0.8C289.6,472.4,295.7,472.1,296.8,471.7z"/>
		<path class="st8" d="M212.2,468.2c0.7-0.5,1.5-2.4,2.2-4.7c-4.1,0.3-8.2-0.6-10.5-1.3c-1.6,2.3-2.9,4.3-3,5.1
			C200.7,469.2,210.5,469.3,212.2,468.2z"/>
	</g>
</g>
<g id="Character_1">
	<g>
		<g>
			<rect x="72.6" y="375.8" class="st2" width="8.4" height="14.9"/>
			<path class="st10" d="M81.4,380.3H70.9c-8.6,0-15.6-7-15.6-15.6V332c0-8.6,7-15.6,15.6-15.6h10.5c8.6,0,15.6,7,15.6,15.6v32.7
				C97,373.3,90,380.3,81.4,380.3z"/>
			<g>
				<path class="st2" d="M63.6,468.7c0-2-1.6-3.5-3.5-3.5s-3.5,1.6-3.5,3.5c0,2,1.6,3.5,3.5,3.5S63.6,470.7,63.6,468.7z"/>
				<path class="st2" d="M132.9,468.7c0-2-1.6-3.5-3.5-3.5c-2,0-3.5,1.6-3.5,3.5c0,2,1.6,3.5,3.5,3.5
					C131.4,472.3,132.9,470.7,132.9,468.7z"/>
				<path class="st2" d="M96.4,468.7c0-2-0.7-3.5-1.6-3.5c-0.9,0-1.6,1.6-1.6,3.5c0,2,0.7,3.5,1.6,3.5
					C95.7,472.3,96.4,470.7,96.4,468.7z"/>
				<polygon class="st2" points="98,449.5 98,398.6 91.1,398.6 91.1,449.7 56.7,463.3 56.7,466.7 61.7,466.7 61.7,463.8 94.8,457 
					127.9,463.8 127.9,466.7 132.9,466.7 132.9,463.3 				"/>
				<polygon class="st2" points="93.1,466.7 96.5,466.7 97.3,450.2 92.3,450.2 				"/>
			</g>
			<rect x="85.7" y="396.6" class="st2" width="17.7" height="10.5"/>
			<path class="st10" d="M119.6,400.5H67.8c-3.3,0-5.9-2.6-5.9-5.9v-1.7c0-3.3,2.6-5.9,5.9-5.9h51.8c3.3,0,5.9,2.6,5.9,5.9v1.7
				C125.5,397.9,122.9,400.5,119.6,400.5z"/>
		</g>
		<g>
			<g>
				<g>
					<path class="st3" d="M169.9,418.4l5.3,7.8l6.3-0.4c0,0,9.2,0.1,10.8-0.3c1.6-0.4,2.2,1,1.4,2.5c-0.8,1.6-7.6,6.5-11.1,8.6
						c-3.5,2.2-11.2,5.6-12.2,5.8c-1,0.2-2.2-1.8-4.3-7.8c-2.2-6.1-6.1-12.1-6.1-12.1L169.9,418.4z"/>
					<g>
						<path class="st3" d="M193.5,428.1c0.8-1.6,0.2-2.9-1.4-2.5c-1.6,0.4-10.8,0.3-10.8,0.3l-6.3,0.4c0.2,3.5,1,5.3,1,5.3
							s-8.8,2.2-10.2,3.1c2.2,6.1,3.3,8,4.3,7.8c1-0.2,8.6-3.6,12.2-5.8C185.9,434.6,192.8,429.7,193.5,428.1z"/>
					</g>
					<path class="st8" d="M193.3,425.7c-1.3,1.4-3.5,3.3-7.1,5.7c-6,4-14.3,7.5-17.9,9c0.8,1.7,1.5,2.2,2,2.1
						c1-0.2,8.6-3.6,12.2-5.8c3.5-2.2,10.3-7,11.1-8.6C194.1,427,193.9,426,193.3,425.7z"/>
				</g>
				<path class="st8" d="M156.2,356.3c0.7-1.6,6.6,19.8,11.3,40.2c3.2,13.8,5.9,22,5.9,22s-4.5,3.8-7.2,5.2
					c-2.7,1.4-7.4,3.1-7.4,3.1s-7-15.2-10.9-22.9c-3.9-7.6-5-12.7-8.1-18.4c-3.1-5.7-3.9-15.9-3.9-15.9s-2-9.8,5.5-12.3
					C148.6,354.8,154,353.5,156.2,356.3z"/>
				<g>
					<path class="st3" d="M135.5,438.6c0,0-1.4,8.4-2.3,11.5c-0.9,3.1-3.4,8.6-2.6,10c0.8,1.4,5,2.8,7.1,3c2.1,0.2,4.9,3.7,8.8,5.1
						c4,1.4,9.2,1,9.1,0c-0.1-1-11.7-13.8-12.3-16.9c-0.6-3.1,1.5-12.8,1.5-12.8L135.5,438.6z"/>
					<g>
						<path class="st3" d="M141.8,453.3c-0.3,0.9-0.3,0.9-0.3,0.9s-5.4-0.6-9.1-1.8c-1.1,3-2.5,6.6-1.9,7.7c0.8,1.4,5,2.8,7.1,3
							c2.1,0.2,4.9,3.7,8.8,5.1c4,1.4,9.2,1,9.1,0c-0.1-1-11.7-13.8-12.3-16.9C143.3,451.2,142.1,452.4,141.8,453.3z"/>
						<path class="st8" d="M146.2,466.1c-3.1-1.5-6-4.2-10.1-5.6c-2.7-0.9-4.6-1.7-5.6-2.1c-0.1,0.7-0.1,1.3,0.1,1.7
							c0.8,1.4,5,2.8,7.1,3c2.1,0.2,4.9,3.7,8.8,5.1c3.8,1.4,8.7,1.1,9.1,0.1C152.9,468,148.4,467.2,146.2,466.1z"/>
					</g>
				</g>
				<path class="st8" d="M133.4,375.6c0,0,15.5,1.8,16.6,9.6c1.2,7.8-1.6,56.6-1.6,56.6s-3.7,0.2-6.9-0.4c-3.1-0.6-8.4-1.8-8.4-1.8
					s-0.8-16.6-1.8-23.3c-1-6.7-1.8-26-1.8-26s-25.8-2.2-28.2-3.7C99.1,385,133.4,375.6,133.4,375.6z"/>
				<g>
					<path class="st8" d="M153.7,370c0,0-38.2,15.1-47,18.1c-8.8,2.9-18.4,2.2-24.5,0.2c-6.1-2-9-9.8-9-9.8s-1.5-1.8-0.7-3.6
						c0.8-1.8,13.3-12.9,20.9-14.9c7.6-2,21.4-1.1,21.4-1.1s33.4-8.5,37.5-7.9c4.1,0.6,7.4,15.2,8,17.2"/>
					<path class="st0" d="M82.1,380.1c0,0,2.7-10.8,10-15.3"/>
					<path class="st0" d="M80.5,372.8c0,0,2.9-4.5,6.9-5.5"/>
				</g>
				<g>
					<path class="st3" d="M111.1,300.6c0,0,2.7,2.9,5.9,10.6c3.2,7.7,8.3,30.9,8.3,30.9s-2.6,1.1-4.6,1.1s-4.7,0.3-5.9-1.1
						c-1.1-1.4-4.3-11.9-4.3-11.9s-1.6-12.9-2-19.4c-0.5-6.5-2.5-7.9-0.5-9.9C110,298.8,111.1,300.6,111.1,300.6z"/>
					<path class="st3" d="M103.4,295.9c0,0,5.8,1.4,7.7,4.6c1.9,3.2,1.1,10.5,1.1,10.5s5.1,14.9,4.2,18.4c-1,3.5-4.8,8.7-4.8,8.7
						s0.3,11.5,1.3,13.8c1,2.2,2.1,7,2.1,7s-2.7,1.9-11.7,3.2c-9,1.3-16.3,1.9-19.4,4.3c-3,2.4-9.8,11.5-10.6,12
						c-0.8,0.5-1.4-1.3-2.1-2.6c-0.6-1.3-0.5-5.1,1-10.9c1.4-5.8,2.2-22.5,0.2-33.1c-2.2-11.5-3.4-13.1-2.1-20.7
						c1.3-7.5,19.1-19,21.6-19.5C94.4,291.3,103.4,295.9,103.4,295.9z"/>
					<g>
						<path class="st7" d="M75,368.9c0,0,4.9-5.7,7.2-6.7c2.3-1,18.8-1,18.8-1"/>
						<path class="st7" d="M78.6,361.7c0,0,2.7-1.6,4.9-2s7.8,0,7.8,0"/>
						<path class="st0" d="M87.2,342.1c0,0,7.4-2.5,14.3-9.2"/>
					</g>
				</g>
				<path class="st3" d="M103.6,255.8c0,0,2.2,4.6,2.9,6.1c0.7,1.4,0.4,3.9,1,5.9c0.6,2,3.9,3.3,3.9,4.5c0,1.2-1.3,3.5-1.3,3.5
					s-0.7,8.9-1.9,9.9c-1.2,1-5.9,1.3-5.9,1.3l-0.4,8.6l2.7,1.6c0,0,0.5,9.5,0,12.8c-0.5,3.4-2,4.1-6.3,1.5
					c-4.7-2.8-10.9-10.3-11.5-11.9c-0.6-1.6,1.3-7.2-1.6-16.5c-2.9-9.2,3.5-17.6,7.6-21.5C97.1,257.6,99.1,255,103.6,255.8z"/>
				<path class="st2" d="M103.6,255.8c-0.1-2.6-0.4-3.6-5.8-4.2c-5.3-0.6-16.7-1-21.2,6.9c-4.5,7.9-4.5,25.2-4.5,25.2
					s-11.6,7.2-12.4,13c-0.8,5.8,3,11.2,9.1,13.1c0.1,0,0.2,0.1,0.4,0.1c0.5-2.3,1.5-5.2,3.3-7.4c3.5-4.2,6.5-3.7,10.9-4.8
					c4.5-1.2,7.2-1.5,7.8-6.5c0.7-5,0.5-8.1,0.1-12.7c-0.1-1.7,1.7-4.3,1.7-4.3s4.5,1.2,7.4-6.6
					C103.3,259.8,103.8,258.4,103.6,255.8z"/>
				<path class="st3" d="M95,276.4c0,0-1.4-6.6-5.2-4c-3.7,2.6,1.9,9.9,2.7,10.1c0.9,0.1,2.3-0.7,2.3-0.7"/>
				<polygon class="st2" points="102.3,286.9 97.8,286.3 102.1,287.1 				"/>
				<path class="st6" d="M107.1,269.4c0.2,1,0,1.8-0.4,1.9c-0.4,0.1-0.9-0.6-1.1-1.6c-0.2-1,0-1.8,0.4-1.9
					C106.4,267.7,106.9,268.4,107.1,269.4z"/>
			</g>
			<line class="st3" x1="84.1" y1="315.3" x2="82.6" y2="313.4"/>
			<path class="st3" d="M78.7,297.5c0,0-5.6-0.2-9.8,5.8c-4.2,6-2.7,13.5-1.5,16.6c1.2,3.1,10.4,21.2,11.8,23.5
				c1.3,2.3,6.2,5.6,7.3,6c1.2,0.4,5-20.8,4.6-22.7c-0.4-1.9-9.3-15.4-9.3-15.4"/>
			<g>
				<path class="st0" d="M82.6,348.4c0,0-3.6-0.4-5.1-0.2c-1.4,0.2-1.1,0.4-0.3,1.2c0.8,0.8,2.4,0.4,2.4,0.4L82.6,348.4z"/>
				<path class="st3" d="M123.2,337.1c1.5,1.4,4.9,10.7-1.6,12c-6.5,1.3-23.7-0.4-24.3,0.2c-0.7,0.7-6.1,4.9-7.3,5.8
					c-1.2,0.9-3.9,1.8-3.9,1.8s-2.5,2-3.2,1.5s0.7-1.5,0.7-1.5s-2.6,1.5-3.5,1.6c-0.9,0.1-0.8-1.2-0.8-1.2c-0.4,0.3-1.3,0.2-1.3,0.2
					s-0.3-1,0.4-1.8c0.8-0.9,4.5-4.5,4.5-4.5s-2.3,0.8-2.5,1.1c-0.2,0.3-1.5,1.2-2.3,1.8c-0.8,0.7-1.4,0.5-1.6,0
					c-0.2-0.5,1-2.4,2.2-3.6c1.3-1.3,7.7-3.8,9-3.8s11.9-3.3,11.9-3.3s19.6-6.8,20.1-7"/>
				<path class="st0" d="M106.3,341.1c0,0,2.3,3.4-0.6,7.9"/>
				<polyline class="st0" points="79.3,357.3 83.4,353.9 85.6,352.1 				"/>
				<path class="st0" d="M83.5,356.8c0,0,3.2-2.7,3.6-2.8"/>
			</g>
			<path class="st3" d="M79.1,334.7c0.2,4-1,9.7,4.8,13.3c2.8,1.8,6.9,3.4,9-1.2c2.1-4.6,3.6-45.6,3.6-45.6s0,0,2.4-0.7
				c2.4-0.7,3.8-4.7,3.8-4.7s-1.1,1.4,0,2.5c1.1,1.1,5.5-3.5,5.8-4.9c0.2-1.3-2.9-5.5-2.9-5.5s1.3-0.7,1.1-2.4c-0.2-1.8-6.3,0-6.3,0
				l-3.6,4.7c0,0-5.3,6.9-5.8,8.6c-0.4,1.5-5.4,17.4-8.3,24.5"/>
			<line class="st0" x1="87.3" y1="310.8" x2="95.3" y2="313.8"/>
		</g>
	</g>
</g>
</svg>
