<?xml version="1.0" encoding="utf-8"?>
<!-- Generator: Adobe Illustrator 27.0.0, SVG Export Plug-In . SVG Version: 6.00 Build 0)  -->
<svg version="1.1" id="Calque_1" xmlns="http://www.w3.org/2000/svg" xmlns:xlink="http://www.w3.org/1999/xlink" x="0px" y="0px"
	 viewBox="0 0 261 238" style="enable-background:new 0 0 261 238;" xml:space="preserve">
<style type="text/css">
	.st0{fill:#3498DB;}
	.st1{fill:#2980B9;}
	.st2{fill:none;stroke:#E74C3C;stroke-width:6;stroke-linecap:round;}
	.st3{fill:#E74C3C;}
	.st4{fill:#ECF0F1;}
	.st5{fill:#FFFFFF;}
</style>
<path class="st0" d="M17.5,40.7h32c2.9,0,5.3,2.4,5.3,5.3v117.5c0,2.9-2.4,5.3-5.3,5.3h-32c-2.9,0-5.3-2.4-5.3-5.3V46.1
	C12.2,43.1,14.6,40.7,17.5,40.7z"/>
<path class="st1" d="M81.6,62.1h32c2.9,0,5.3,2.4,5.3,5.3v96.1c0,2.9-2.4,5.3-5.3,5.3h-32c-2.9,0-5.3-2.4-5.3-5.3V67.4
	C76.3,64.5,78.7,62.1,81.6,62.1z"/>
<path class="st0" d="M145.7,83.5h32c2.9,0,5.3,2.4,5.3,5.3v74.8c0,2.9-2.4,5.3-5.3,5.3h-32c-2.9,0-5.3-2.4-5.3-5.3V88.8
	C140.4,85.9,142.8,83.5,145.7,83.5z"/>
<path class="st1" d="M209.8,51.4h32c2.9,0,5.3,2.4,5.3,5.3v106.8c0,2.9-2.4,5.3-5.3,5.3h-32c-2.9,0-5.3-2.4-5.3-5.3V56.8
	C204.5,53.8,206.9,51.4,209.8,51.4z"/>
<g>
	<path class="st2" d="M91.3,94.1l53.4-64.1l53.4,21.4l42.7-42.7"/>
	<circle class="st3" cx="91.3" cy="94.1" r="6.4"/>
	<circle class="st3" cx="144.7" cy="30.1" r="6.4"/>
	<circle class="st3" cx="198.1" cy="51.4" r="6.4"/>
	<circle class="st3" cx="240.8" cy="8.7" r="6.4"/>
</g>
<circle class="st4" cx="33.6" cy="158.2" r="8.5"/>
<circle class="st4" cx="97.7" cy="158.2" r="8.5"/>
<circle class="st4" cx="161.8" cy="158.2" r="8.5"/>
<circle class="st4" cx="225.9" cy="158.2" r="8.5"/>
<g>
	<path class="st5" d="M6.9,211.4H12c1.2,0,2,0.1,2.7,0.3c0.8,0.2,1.5,0.7,2.1,1.3c0.6,0.6,1,1.4,1.3,2.3c0.3,0.9,0.5,2,0.5,3.3
		c0,1.1-0.1,2.1-0.4,3c-0.3,1-0.8,1.8-1.5,2.5c-0.5,0.5-1.1,0.8-2,1.1c-0.6,0.2-1.5,0.3-2.5,0.3H6.9V211.4z M9.7,213.7v9.2h2.1
		c0.8,0,1.4,0,1.7-0.1c0.5-0.1,0.8-0.3,1.1-0.6c0.3-0.3,0.5-0.7,0.7-1.3c0.2-0.6,0.3-1.5,0.3-2.6s-0.1-1.9-0.3-2.5
		c-0.2-0.6-0.5-1-0.8-1.3c-0.3-0.3-0.8-0.5-1.3-0.7c-0.4-0.1-1.2-0.1-2.3-0.1H9.7z"/>
	<path class="st5" d="M21,225.3v-13.9h10.3v2.4h-7.5v3.1h7v2.3h-7v3.8h7.8v2.3H21z"/>
	<path class="st5" d="M39.4,225.3v-13.8h2.8V223h7v2.3H39.4z"/>
	<path class="st5" d="M63.8,225.3h-3.1l-1.2-3.2H54l-1.2,3.2h-3l5.4-13.9h3L63.8,225.3z M58.6,219.8l-1.9-5.2l-1.9,5.2H58.6z"/>
	<path class="st5" d="M70,225.3v-13.9h4.2l2.5,9.5l2.5-9.5h4.2v13.9h-2.6v-11l-2.8,11h-2.7l-2.8-11v11H70z"/>
	<path class="st5" d="M98.8,225.3h-3.1l-1.2-3.2H89l-1.2,3.2h-3l5.4-13.9h3L98.8,225.3z M93.6,219.8l-1.9-5.2l-1.9,5.2H93.6z"/>
	<path class="st5" d="M99.6,220.8l2.7-0.3c0.2,0.9,0.5,1.6,1,2c0.5,0.4,1.2,0.6,2,0.6c0.9,0,1.6-0.2,2-0.6c0.5-0.4,0.7-0.8,0.7-1.3
		c0-0.3-0.1-0.6-0.3-0.8s-0.5-0.4-1-0.6c-0.3-0.1-1.1-0.3-2.3-0.6c-1.5-0.4-2.6-0.8-3.2-1.4c-0.9-0.8-1.3-1.7-1.3-2.8
		c0-0.7,0.2-1.4,0.6-2c0.4-0.6,1-1.1,1.7-1.4c0.8-0.3,1.7-0.5,2.7-0.5c1.7,0,3.1,0.4,4,1.2c0.9,0.8,1.3,1.8,1.4,3.1l-2.8,0.1
		c-0.1-0.7-0.4-1.2-0.8-1.5c-0.4-0.3-1-0.5-1.8-0.5c-0.8,0-1.5,0.2-1.9,0.5c-0.3,0.2-0.4,0.5-0.4,0.9c0,0.3,0.1,0.6,0.4,0.8
		c0.4,0.3,1.2,0.6,2.6,0.9c1.4,0.3,2.4,0.7,3,1s1.2,0.8,1.5,1.4c0.4,0.6,0.6,1.3,0.6,2.2c0,0.8-0.2,1.5-0.7,2.2s-1.1,1.2-1.9,1.6
		s-1.8,0.5-3,0.5c-1.8,0-3.1-0.4-4.1-1.2C100.3,223.5,99.8,222.4,99.6,220.8z"/>
	<path class="st5" d="M112.6,220.8l2.7-0.3c0.2,0.9,0.5,1.6,1,2c0.5,0.4,1.2,0.6,2,0.6c0.9,0,1.6-0.2,2-0.6c0.5-0.4,0.7-0.8,0.7-1.3
		c0-0.3-0.1-0.6-0.3-0.8s-0.5-0.4-1-0.6c-0.3-0.1-1.1-0.3-2.3-0.6c-1.5-0.4-2.6-0.8-3.2-1.4c-0.9-0.8-1.3-1.7-1.3-2.8
		c0-0.7,0.2-1.4,0.6-2c0.4-0.6,1-1.1,1.7-1.4c0.8-0.3,1.7-0.5,2.7-0.5c1.7,0,3.1,0.4,4,1.2c0.9,0.8,1.3,1.8,1.4,3.1l-2.8,0.1
		c-0.1-0.7-0.4-1.2-0.8-1.5c-0.4-0.3-1-0.5-1.8-0.5c-0.8,0-1.5,0.2-1.9,0.5c-0.3,0.2-0.4,0.5-0.4,0.9c0,0.3,0.1,0.6,0.4,0.8
		c0.4,0.3,1.2,0.6,2.6,0.9c1.4,0.3,2.4,0.7,3,1s1.2,0.8,1.5,1.4c0.4,0.6,0.6,1.3,0.6,2.2c0,0.8-0.2,1.5-0.7,2.2s-1.1,1.2-1.9,1.6
		s-1.8,0.5-3,0.5c-1.8,0-3.1-0.4-4.1-1.2C113.3,223.5,112.8,222.4,112.6,220.8z"/>
	<path class="st5" d="M126.3,225.3v-13.9h10.3v2.4h-7.5v3.1h7v2.3h-7v3.8h7.8v2.3H126.3z"/>
	<path class="st5" d="M144,220.8l2.7-0.3c0.2,0.9,0.5,1.6,1,2c0.5,0.4,1.2,0.6,2,0.6c0.9,0,1.6-0.2,2-0.6c0.5-0.4,0.7-0.8,0.7-1.3
		c0-0.3-0.1-0.6-0.3-0.8s-0.5-0.4-1-0.6c-0.3-0.1-1.1-0.3-2.3-0.6c-1.5-0.4-2.6-0.8-3.2-1.4c-0.9-0.8-1.3-1.7-1.3-2.8
		c0-0.7,0.2-1.4,0.6-2c0.4-0.6,1-1.1,1.7-1.4c0.8-0.3,1.7-0.5,2.7-0.5c1.7,0,3.1,0.4,4,1.2c0.9,0.8,1.3,1.8,1.4,3.1l-2.8,0.1
		c-0.1-0.7-0.4-1.2-0.8-1.5c-0.4-0.3-1-0.5-1.8-0.5c-0.8,0-1.5,0.2-1.9,0.5c-0.3,0.2-0.4,0.5-0.4,0.9c0,0.3,0.1,0.6,0.4,0.8
		c0.4,0.3,1.2,0.6,2.6,0.9c1.4,0.3,2.4,0.7,3,1s1.2,0.8,1.5,1.4c0.4,0.6,0.6,1.3,0.6,2.2c0,0.8-0.2,1.5-0.7,2.2s-1.1,1.2-1.9,1.6
		s-1.8,0.5-3,0.5c-1.8,0-3.1-0.4-4.1-1.2C144.7,223.5,144.1,222.4,144,220.8z"/>
	<path class="st5" d="M170.2,225.3h-3.1l-1.2-3.2h-5.6l-1.2,3.2h-3l5.4-13.9h3L170.2,225.3z M165.1,219.8l-1.9-5.2l-1.9,5.2H165.1z"
		/>
	<path class="st5" d="M171.8,225.3v-13.8h2.8V223h7v2.3H171.8z"/>
	<path class="st5" d="M196.2,225.3h-3.1l-1.2-3.2h-5.6l-1.2,3.2h-3l5.4-13.9h3L196.2,225.3z M191,219.8l-1.9-5.2l-1.9,5.2H191z"/>
	<path class="st5" d="M197.7,225.3v-13.9h5.9c1.5,0,2.6,0.1,3.2,0.4c0.7,0.3,1.2,0.7,1.6,1.3c0.4,0.6,0.6,1.4,0.6,2.2
		c0,1-0.3,1.9-0.9,2.6c-0.6,0.7-1.5,1.1-2.8,1.3c0.6,0.4,1.1,0.7,1.5,1.2c0.4,0.4,0.9,1.2,1.6,2.3l1.7,2.7h-3.4l-2-3
		c-0.7-1.1-1.2-1.8-1.5-2s-0.5-0.5-0.8-0.6c-0.3-0.1-0.8-0.2-1.4-0.2h-0.6v5.8H197.7z M200.5,217.3h2.1c1.4,0,2.2-0.1,2.5-0.2
		c0.3-0.1,0.6-0.3,0.8-0.6c0.2-0.3,0.3-0.6,0.3-1c0-0.5-0.1-0.8-0.4-1.1s-0.6-0.5-1.1-0.5c-0.2,0-0.9,0-2.1,0h-2.2V217.3z"/>
	<path class="st5" d="M211.7,225.3v-13.9h2.8v13.9H211.7z"/>
	<path class="st5" d="M229.7,225.3h-3.1l-1.2-3.2h-5.6l-1.2,3.2h-3l5.4-13.9h3L229.7,225.3z M224.6,219.8l-1.9-5.2l-1.9,5.2H224.6z"
		/>
	<path class="st5" d="M231.3,225.3v-13.8h2.8V223h7v2.3H231.3z"/>
	<path class="st5" d="M243.1,225.3v-13.9h10.3v2.4h-7.5v3.1h7v2.3h-7v3.8h7.8v2.3H243.1z"/>
</g>
<g>
	<path class="st5" d="M6,179.1h11.2c1.9,0,3.3,0.5,4.3,1.4s1.5,2.1,1.5,3.4c0,1.1-0.4,2.1-1.1,2.9c-0.5,0.5-1.2,1-2.1,1.3
		c1.4,0.3,2.4,0.9,3.1,1.7c0.7,0.8,1,1.8,1,3.1c0,1-0.2,1.9-0.7,2.7c-0.5,0.8-1.1,1.4-1.9,1.9c-0.5,0.3-1.3,0.5-2.3,0.6
		c-1.3,0.2-2.2,0.3-2.7,0.3H6V179.1z M12,186.6h2.6c0.9,0,1.6-0.2,1.9-0.5s0.5-0.8,0.5-1.4c0-0.6-0.2-1-0.5-1.3s-1-0.5-1.9-0.5H12
		V186.6z M12,194.2h3c1,0,1.8-0.2,2.2-0.5s0.6-0.9,0.6-1.5c0-0.6-0.2-1-0.6-1.4c-0.4-0.3-1.1-0.5-2.2-0.5h-3V194.2z"/>
	<path class="st5" d="M38.9,179.1h6v11.5c0,1.1-0.2,2.2-0.5,3.2c-0.4,1-0.9,1.9-1.7,2.7s-1.6,1.3-2.4,1.6c-1.2,0.4-2.6,0.6-4.2,0.6
		c-0.9,0-2-0.1-3.1-0.2c-1.1-0.1-2-0.4-2.8-0.8c-0.7-0.4-1.4-0.9-2.1-1.7c-0.6-0.7-1-1.5-1.3-2.2c-0.4-1.2-0.6-2.3-0.6-3.3v-11.5h6
		v11.8c0,1.1,0.3,1.9,0.9,2.5c0.6,0.6,1.4,0.9,2.4,0.9c1,0,1.8-0.3,2.4-0.9c0.6-0.6,0.9-1.4,0.9-2.5V179.1z"/>
	<path class="st5" d="M48.9,179.1h8.9c1.7,0,3.2,0.2,4.2,0.7c1.1,0.5,2,1.2,2.7,2c0.7,0.9,1.2,1.9,1.5,3.1s0.5,2.4,0.5,3.7
		c0,2.1-0.2,3.7-0.7,4.8c-0.5,1.1-1.1,2.1-2,2.9c-0.8,0.8-1.7,1.3-2.7,1.5c-1.3,0.4-2.5,0.5-3.6,0.5h-8.9V179.1z M54.9,183.4V194
		h1.5c1.2,0,2.1-0.1,2.7-0.4c0.5-0.3,0.9-0.8,1.2-1.5c0.3-0.7,0.4-1.8,0.4-3.4c0-2-0.3-3.5-1-4.2s-1.8-1.1-3.3-1.1H54.9z"/>
	<path class="st5" d="M79.5,191.4v-4h9.2v8.2c-1.8,1.2-3.3,2-4.7,2.5c-1.4,0.4-3,0.7-4.8,0.7c-2.3,0-4.2-0.4-5.6-1.2
		s-2.6-1.9-3.4-3.5c-0.8-1.5-1.2-3.3-1.2-5.3c0-2.1,0.4-3.9,1.3-5.5c0.9-1.6,2.1-2.7,3.8-3.6c1.3-0.6,3.1-0.9,5.3-0.9
		c2.1,0,3.7,0.2,4.8,0.6s1.9,1,2.6,1.8c0.7,0.8,1.2,1.8,1.6,3.1l-5.8,1c-0.2-0.7-0.6-1.3-1.2-1.7c-0.6-0.4-1.3-0.6-2.2-0.6
		c-1.3,0-2.4,0.5-3.1,1.4c-0.8,0.9-1.2,2.3-1.2,4.3c0,2.1,0.4,3.6,1.2,4.5c0.8,0.9,1.9,1.3,3.3,1.3c0.7,0,1.3-0.1,1.9-0.3
		s1.3-0.5,2.1-1v-1.8H79.5z"/>
	<path class="st5" d="M92.3,179.1h16v4.1h-10v3.1h9.3v3.9h-9.3v3.8h10.3v4.4H92.3V179.1z M99.9,173.9h4.6l-4.3,3.9h-2.6L99.9,173.9z
		"/>
	<path class="st5" d="M110.4,179.1h18.2v4.8h-6.1v14.6h-6v-14.6h-6.1V179.1z"/>
	<path class="st5" d="M131.5,179.1h6v19.3h-6V179.1z"/>
	<path class="st5" d="M140.8,192l5.7-0.4c0.1,0.9,0.4,1.6,0.8,2.1c0.6,0.8,1.5,1.2,2.6,1.2c0.9,0,1.5-0.2,2-0.6s0.7-0.9,0.7-1.4
		c0-0.5-0.2-0.9-0.7-1.3c-0.4-0.4-1.5-0.8-3.1-1.1c-2.6-0.6-4.5-1.4-5.6-2.3c-1.1-1-1.7-2.2-1.7-3.7c0-1,0.3-1.9,0.9-2.8
		c0.6-0.9,1.4-1.6,2.6-2.1c1.2-0.5,2.7-0.8,4.8-0.8c2.5,0,4.4,0.5,5.6,1.4c1.3,0.9,2.1,2.4,2.3,4.4l-5.6,0.3
		c-0.1-0.9-0.5-1.5-0.9-1.9s-1.1-0.6-2-0.6c-0.7,0-1.2,0.1-1.6,0.4c-0.4,0.3-0.5,0.7-0.5,1.1c0,0.3,0.1,0.6,0.4,0.8
		c0.3,0.3,0.9,0.5,2,0.7c2.6,0.6,4.5,1.1,5.6,1.7c1.1,0.6,2,1.3,2.5,2.1s0.8,1.8,0.8,2.9c0,1.2-0.3,2.4-1,3.4
		c-0.7,1-1.6,1.8-2.9,2.4c-1.2,0.5-2.8,0.8-4.7,0.8c-3.3,0-5.6-0.6-6.8-1.9C141.6,195.5,140.9,193.9,140.8,192z"/>
	<path class="st5" d="M173.2,195.2h-6.8l-0.9,3.2h-6.1l7.3-19.3h6.5l7.3,19.3h-6.3L173.2,195.2z M172,191l-2.1-6.9l-2.1,6.9H172z"/>
	<path class="st5" d="M179.1,179.1h18.2v4.8h-6.1v14.6h-6v-14.6h-6.1V179.1z"/>
	<path class="st5" d="M200.2,179.1h6v19.3h-6V179.1z"/>
	<path class="st5" d="M209.7,188.7c0-3.2,0.9-5.6,2.6-7.4c1.8-1.8,4.2-2.6,7.3-2.6c3.2,0,5.7,0.9,7.4,2.6c1.7,1.7,2.6,4.1,2.6,7.3
		c0,2.3-0.4,4.1-1.1,5.6c-0.8,1.4-1.9,2.6-3.3,3.4c-1.4,0.8-3.2,1.2-5.4,1.2c-2.2,0-4-0.3-5.4-1s-2.6-1.8-3.5-3.3
		S209.7,191,209.7,188.7z M215.7,188.8c0,2,0.4,3.4,1.1,4.2s1.7,1.3,3,1.3c1.3,0,2.3-0.4,3-1.3c0.7-0.8,1.1-2.3,1.1-4.5
		c0-1.8-0.4-3.1-1.1-4c-0.7-0.8-1.7-1.3-3-1.3c-1.2,0-2.2,0.4-2.9,1.3C216,185.4,215.7,186.8,215.7,188.8z"/>
	<path class="st5" d="M233,179.1h5.6l7.3,10.7v-10.7h5.6v19.3h-5.6l-7.2-10.6v10.6H233V179.1z"/>
</g>
</svg>
